<svg width="187" height="73" viewBox="0 0 187 73" fill="none" xmlns="http://www.w3.org/2000/svg">
<g id="OBJECTS">
<path id="XMLID 556" d="M65.093 0H6.85498V52.979H65.093V0Z" fill="#FFF200"/>
<g id="Group">
<path id="Vector" d="M14.9351 33.7149L12.8481 39.9499H10.165L16.993 20.1279H20.1241L26.9821 39.9499H24.209L22.062 33.7149H14.9351ZM21.524 31.7149L19.5561 26.0099C19.1091 24.7159 18.8111 23.5399 18.5121 22.3929H18.4521C18.1541 23.5689 17.826 24.7749 17.438 25.9809L15.47 31.7159H21.524V31.7149Z" fill="#3E3F41"/>
<path id="Vector_2" d="M31.4258 20.392C32.7378 20.127 34.6158 19.98 36.4048 19.98C39.1778 19.98 40.9668 20.48 42.2188 21.598C43.2328 22.48 43.7988 23.833 43.7988 25.363C43.7988 27.98 42.1288 29.716 40.0118 30.421V30.509C41.5618 31.038 42.4868 32.45 42.9638 34.509C43.6198 37.274 44.0968 39.185 44.5138 39.95H41.8308C41.5028 39.391 41.0558 37.685 40.4888 35.215C39.8928 32.48 38.8188 31.45 36.4638 31.362H34.0188V39.95H31.4248V20.392H31.4258ZM34.0198 29.421H36.6738C39.4468 29.421 41.2058 27.921 41.2058 25.656C41.2058 23.097 39.3278 21.98 36.5848 21.95C35.3328 21.95 34.4378 22.068 34.0208 22.186V29.421H34.0198Z" fill="#3E3F41"/>
<path id="Vector_3" d="M53.0441 22.303H46.9321V20.127H61.8102V22.303H55.6682V39.949H53.0441V22.303Z" fill="#3E3F41"/>
<path id="Vector_4" d="M88.6482 39.0669C87.4852 39.4789 85.1892 40.1549 82.4762 40.1549C79.4352 40.1549 76.9302 39.3899 74.9622 37.5369C73.2332 35.8899 72.1592 33.2429 72.1592 30.1549C72.1892 24.2439 76.3032 19.9199 83.0422 19.9199C85.3682 19.9199 87.1862 20.4199 88.0512 20.8309L87.4252 22.9199C86.3522 22.4489 85.0102 22.0669 82.9822 22.0669C78.0922 22.0669 74.9022 25.0669 74.9022 30.0369C74.9022 35.0659 77.9732 38.0369 82.6542 38.0369C84.3532 38.0369 85.5162 37.8019 86.1132 37.5079V31.5969H82.0282V29.5379H88.6472V39.0669H88.6482Z" fill="white"/>
<path id="Vector_5" d="M97.3569 33.7149L95.2699 39.9499H92.5869L99.4149 20.1279H102.546L109.404 39.9499H106.631L104.484 33.7149H97.3569ZM103.946 31.7149L101.978 26.0099C101.531 24.7159 101.233 23.5399 100.934 22.3929H100.874C100.576 23.5689 100.248 24.7749 99.8599 25.9809L97.8919 31.7159H103.946V31.7149Z" fill="white"/>
<path id="Vector_6" d="M113.848 20.127H116.442V37.803H125.029V39.95H113.848V20.127Z" fill="white"/>
<path id="Vector_7" d="M139.82 30.656H132.008V37.803H140.714V39.95H129.414V20.127H140.267V22.274H132.008V28.538H139.82V30.656Z" fill="white"/>
<path id="Vector_8" d="M145.577 20.392C146.889 20.127 148.767 19.98 150.556 19.98C153.329 19.98 155.118 20.48 156.37 21.598C157.384 22.48 157.95 23.833 157.95 25.363C157.95 27.98 156.28 29.716 154.163 30.421V30.509C155.713 31.038 156.638 32.45 157.115 34.509C157.771 37.274 158.248 39.185 158.665 39.95H155.982C155.654 39.391 155.207 37.685 154.64 35.215C154.044 32.48 152.97 31.45 150.615 31.362H148.17V39.95H145.576V20.392H145.577ZM148.171 29.421H150.825C153.598 29.421 155.357 27.921 155.357 25.656C155.357 23.097 153.479 21.98 150.735 21.95C149.483 21.95 148.588 22.068 148.171 22.186V29.421Z" fill="white"/>
<path id="Vector_9" d="M167.255 39.95V31.538L160.904 20.127H163.856L166.689 25.597C167.464 27.097 168.061 28.303 168.687 29.685H168.747C169.313 28.391 169.999 27.097 170.774 25.597L173.666 20.127H176.618L169.88 31.509V39.95H167.255Z" fill="white"/>
</g>
<g id="Group_2">
<path id="Vector_10" d="M67.2899 60.817C67.8709 61.17 68.7219 61.464 69.6159 61.464C70.9429 61.464 71.7189 60.773 71.7189 59.773C71.7189 58.847 71.1829 58.317 69.8259 57.803C68.1849 57.23 67.1709 56.392 67.1709 54.995C67.1709 53.451 68.4679 52.304 70.4209 52.304C71.4499 52.304 72.1959 52.539 72.6429 52.789L72.2849 53.833C71.9559 53.657 71.2849 53.363 70.3759 53.363C69.0039 53.363 68.4819 54.172 68.4819 54.848C68.4819 55.774 69.0929 56.23 70.4799 56.759C72.1799 57.406 73.0449 58.215 73.0449 59.67C73.0449 61.199 71.8969 62.5219 69.5249 62.5219C68.5559 62.5219 67.4969 62.243 66.9609 61.89L67.2899 60.817Z" fill="white"/>
<path id="Vector_11" d="M77.1878 59.2581L76.1438 62.3751H74.8018L78.2168 52.4661H79.7828L83.2128 62.3751H81.8258L80.7518 59.2581H77.1878ZM80.4828 58.2591L79.4988 55.4071C79.2758 54.7601 79.1258 54.1721 78.9768 53.5991H78.9468C78.7978 54.1871 78.6338 54.7901 78.4398 55.3921L77.4558 58.2591H80.4828Z" fill="white"/>
<path id="Vector_12" d="M85.4312 62.3751V52.4661H86.8481L90.0701 57.4791C90.8151 58.6401 91.3961 59.6841 91.8741 60.6991L91.9041 60.6851C91.7851 59.3621 91.7551 58.1561 91.7551 56.6121V52.4661H92.9781V62.3751H91.6661L88.4742 57.3471C87.7732 56.2441 87.1031 55.1121 86.5951 54.0391L86.5511 54.0541C86.6251 55.3031 86.6552 56.4951 86.6552 58.1411V62.3751H85.4312Z" fill="white"/>
<path id="Vector_13" d="M99.8901 52.4661H105.303V53.5391H101.188V56.8321H104.991V57.8911H101.188V62.3751H99.8911V52.4661H99.8901Z" fill="white"/>
<path id="Vector_14" d="M107.895 52.5978C108.551 52.4658 109.49 52.3918 110.385 52.3918C111.772 52.3918 112.667 52.6418 113.293 53.1998C113.8 53.6408 114.083 54.3178 114.083 55.0818C114.083 56.3908 113.248 57.2578 112.19 57.6108V57.6548C112.965 57.9198 113.427 58.6258 113.666 59.6548C113.994 61.0368 114.232 61.9928 114.442 62.3748H113.099C112.935 62.0958 112.712 61.2428 112.428 60.0078C112.13 58.6408 111.593 58.1258 110.415 58.0818H109.192V62.3748H107.895V52.5978ZM109.192 57.1118H110.519C111.906 57.1118 112.785 56.3618 112.785 55.2298C112.785 53.9508 111.846 53.3918 110.474 53.3778C109.848 53.3778 109.4 53.4369 109.192 53.4949V57.1118Z" fill="white"/>
<path id="Vector_15" d="M118.36 59.2581L117.316 62.3751H115.974L119.389 52.4661H120.955L124.385 62.3751H122.998L121.924 59.2581H118.36ZM121.655 58.2591L120.671 55.4071C120.448 54.7601 120.298 54.1721 120.149 53.5991H120.119C119.97 54.1871 119.806 54.7901 119.612 55.3921L118.628 58.2591H121.655Z" fill="white"/>
<path id="Vector_16" d="M126.602 62.3751V52.4661H128.019L131.241 57.4791C131.986 58.6401 132.567 59.6841 133.045 60.6991L133.075 60.6851C132.956 59.3621 132.926 58.1561 132.926 56.6121V52.4661H134.149V62.3751H132.837L129.645 57.3471C128.944 56.2441 128.274 55.1121 127.766 54.0391L127.722 54.0541C127.796 55.3031 127.826 56.4951 127.826 58.1411V62.3751H126.602Z" fill="white"/>
<path id="Vector_17" d="M144.18 62.052C143.703 62.287 142.749 62.5219 141.525 62.5219C138.692 62.5219 136.56 60.7579 136.56 57.5079C136.56 54.4059 138.692 52.304 141.809 52.304C143.061 52.304 143.852 52.569 144.195 52.745L143.882 53.789C143.39 53.554 142.688 53.378 141.854 53.378C139.497 53.378 137.932 54.863 137.932 57.465C137.932 59.891 139.349 61.449 141.795 61.449C142.585 61.449 143.39 61.287 143.912 61.037L144.18 62.052Z" fill="white"/>
<path id="Vector_18" d="M147.845 52.4661V62.3751H146.548V52.4661H147.845Z" fill="white"/>
<path id="Vector_19" d="M150.676 60.817C151.257 61.17 152.107 61.464 153.002 61.464C154.329 61.464 155.105 60.773 155.105 59.773C155.105 58.847 154.569 58.317 153.212 57.803C151.571 57.23 150.557 56.392 150.557 54.995C150.557 53.451 151.854 52.304 153.807 52.304C154.836 52.304 155.582 52.539 156.029 52.789L155.671 53.833C155.342 53.657 154.671 53.363 153.762 53.363C152.39 53.363 151.868 54.172 151.868 54.848C151.868 55.774 152.479 56.23 153.866 56.759C155.566 57.406 156.431 58.215 156.431 59.67C156.431 61.199 155.283 62.5219 152.911 62.5219C151.942 62.5219 150.883 62.243 150.347 61.89L150.676 60.817Z" fill="white"/>
<path id="Vector_20" d="M165.973 62.052C165.496 62.287 164.542 62.5219 163.318 62.5219C160.485 62.5219 158.353 60.7579 158.353 57.5079C158.353 54.4059 160.485 52.304 163.601 52.304C164.853 52.304 165.644 52.569 165.987 52.745L165.674 53.789C165.182 53.554 164.48 53.378 163.646 53.378C161.289 53.378 159.724 54.863 159.724 57.465C159.724 59.891 161.141 61.449 163.587 61.449C164.377 61.449 165.182 61.287 165.704 61.037L165.973 62.052Z" fill="white"/>
<path id="Vector_21" d="M176.617 57.3179C176.617 60.7279 174.514 62.5369 171.95 62.5369C169.295 62.5369 167.432 60.5079 167.432 57.5089C167.432 54.3629 169.415 52.3049 172.099 52.3049C174.843 52.3039 176.617 54.3769 176.617 57.3179ZM168.819 57.4789C168.819 59.5959 169.982 61.4929 172.024 61.4929C174.083 61.4929 175.246 59.6259 175.246 57.3769C175.246 55.4069 174.202 53.3489 172.04 53.3489C169.892 53.3479 168.819 55.3029 168.819 57.4789Z" fill="white"/>
</g>
<path id="XMLID 553" d="M81.9659 71.3999H71.9639V72.6639H81.9659V71.3999Z" fill="white"/>
<path id="XMLID 558" d="M178.066 34.084H186.48V5.04004H1V58.224H62.954" stroke="white" stroke-width="0.7702" stroke-miterlimit="10"/>
</g>
</svg>
